<?xml version="1.0" encoding="utf-8"?>
<!-- Svg Vector Icons : http://www.onlinewebfonts.com/icon -->
<!DOCTYPE svg PUBLIC "-//W3C//DTD SVG 1.1//EN" "http://www.w3.org/Graphics/SVG/1.1/DTD/svg11.dtd">
<svg version="1.1" xmlns="http://www.w3.org/2000/svg" xmlns:xlink="http://www.w3.org/1999/xlink" x="0px" y="0px" viewBox="0 0 1000 1000" enable-background="new 0 0 1000 1000" xml:space="preserve">
<metadata> Svg Vector Icons : http://www.onlinewebfonts.com/icon </metadata>
<g><g><path d="M984.9,450.8C923.4,399,871.6,337.4,816.5,279.1c-29.2-30.8-74.5-92.3-123.1-95.5c-3.2-4.9-8.1-8.1-19.4-6.5c-6.5,1.6-11.3,6.5-13,13c-9.7,37.2-8.1,76.1-8.1,115C510.4,285.6,343.6,356.9,230.3,433C105.6,515.6,8.4,653.2,10,807.1c0,6.5,4.9,9.7,9.7,11.3c4.9,4.9,11.3,6.5,17.8,3.2c187.9-132.8,383.8-249.4,621.9-208.9h1.6c-14.6,47-16.2,100.4-16.2,149c0,14.6,13,19.4,22.7,17.8c4.9,6.5,16.2,11.3,24.3,3.2c106.9-89.1,223.5-189.5,294.7-310.9C991.4,467,991.4,455.6,984.9,450.8z M931.5,494.5c-27.5,40.5-63.2,76.1-98.8,111.7c-48.6,48.6-103.6,90.7-150.6,140.9c0-43.7-1.6-87.5,1.6-132.8c0-4.9-1.6-8.1-4.9-9.7c4.9-9.7,3.2-22.7-9.7-25.9c-234.8-50.2-451.8,61.5-633.2,204c24.3-142.5,108.5-249.4,230-330.4c121.5-81,247.8-97.2,387-113.4v1.6c-1.6,13,19.4,14.6,22.7,3.2c0-3.2,1.6-4.9,1.6-8.1c9.7-4.9,13-17.8,4.9-22.7c4.9-25.9,6.5-51.8,9.7-77.7c0-4.9,1.6-13,3.2-21.1c21.1,27.5,56.7,51.8,81,76.1c47,48.6,90.7,100.4,139.3,149C941.2,462.1,952.5,462.1,931.5,494.5z"/></g><g></g><g></g><g></g><g></g><g></g><g></g><g></g><g></g><g></g><g></g><g></g><g></g><g></g><g></g><g></g></g>
</svg>